<?xml version="1.0" encoding="utf-8"?>
<!-- Generator: Adobe Illustrator 16.0.0, SVG Export Plug-In . SVG Version: 6.00 Build 0)  -->
<!DOCTYPE svg PUBLIC "-//W3C//DTD SVG 1.1//EN" "http://www.w3.org/Graphics/SVG/1.1/DTD/svg11.dtd">
<svg version="1.1" id="Layer_2" xmlns="http://www.w3.org/2000/svg" xmlns:xlink="http://www.w3.org/1999/xlink" x="0px" y="0px"
	 width="196px" height="196px" viewBox="0 0 196 196" enable-background="new 0 0 196 196" xml:space="preserve">
<g>
	<g>
		<path d="M98.657,153.864c0,0-0.095-0.038-0.277-0.114c-0.179-0.069-0.445-0.173-0.792-0.307c-0.709-0.264-1.758-0.647-3.122-1.062
			c-1.357-0.431-3.032-0.878-4.966-1.345c-1.941-0.425-4.143-0.879-6.573-1.188c-0.607-0.079-1.227-0.159-1.859-0.241
			c-0.634-0.054-1.281-0.107-1.938-0.163c-1.314-0.142-2.68-0.143-4.082-0.201c-1.402-0.021-2.844,0.023-4.315,0.077
			c-1.463,0.147-2.977,0.17-4.484,0.438c-0.757,0.109-1.521,0.221-2.29,0.333c-0.764,0.141-1.524,0.325-2.295,0.487l-1.158,0.253
			c-0.184,0.043-0.411,0.081-0.559,0.13l-0.579,0.172c-0.772,0.229-1.549,0.46-2.329,0.69c-0.795,0.207-1.515,0.538-2.277,0.809
			c-0.748,0.301-1.521,0.534-2.255,0.891c-1.482,0.676-2.98,1.337-4.403,2.151c-1.463,0.738-2.828,1.653-4.225,2.499
			c-1.341,0.934-2.703,1.83-3.973,2.834c-2.58,1.953-4.995,4.044-7.269,6.14c-2.282,2.088-4.437,4.169-6.554,6.072
			c-2.111,1.896-4.231,3.629-6.452,4.766c-2.234,1.161-4.477,1.737-6.485,1.977c-2.011,0.237-3.784,0.15-5.219-0.034
			c-1.437-0.188-2.543-0.47-3.286-0.687c-0.744-0.22-1.126-0.378-1.126-0.378s0.385,0.151,1.132,0.356
			c0.746,0.203,1.855,0.462,3.29,0.623c1.433,0.156,3.197,0.209,5.185-0.064c1.979-0.271,4.199-0.893,6.351-2.063
			c2.183-1.171,4.226-2.908,6.297-4.84c2.071-1.933,4.186-4.054,6.435-6.19c2.241-2.146,4.632-4.298,7.202-6.32
			c1.264-1.038,2.625-1.973,3.967-2.944c1.4-0.886,2.769-1.841,4.244-2.621c1.433-0.855,2.946-1.56,4.446-2.276
			c0.741-0.377,1.541-0.639,2.307-0.961c0.775-0.293,1.542-0.655,2.32-0.872c0.775-0.246,1.547-0.491,2.315-0.735l0.576-0.183
			c0.234-0.077,0.405-0.103,0.61-0.156l1.18-0.281c0.786-0.181,1.563-0.385,2.343-0.544c0.785-0.13,1.565-0.258,2.338-0.386
			c1.542-0.304,3.086-0.357,4.585-0.535c1.505-0.084,2.981-0.157,4.417-0.163c1.436,0.031,2.836,0.009,4.183,0.127
			c0.675,0.044,1.338,0.087,1.989,0.13c0.648,0.071,1.285,0.142,1.908,0.21c2.494,0.271,4.756,0.691,6.755,1.09
			c1.991,0.439,3.718,0.867,5.125,1.284c1.411,0.399,2.504,0.776,3.252,1.037c0.378,0.139,0.667,0.245,0.862,0.316
			c0.188,0.074,0.286,0.112,0.286,0.112L98.657,153.864z"/>
	</g>
	<g>
		<path d="M99.426,153.977c0,0-0.188,0.048-0.54,0.138c-0.34,0.094-0.868,0.236-1.521,0.453c-0.658,0.205-1.448,0.49-2.351,0.83
			c-0.447,0.181-0.924,0.373-1.426,0.576c-0.494,0.223-1.013,0.456-1.555,0.7c-1.069,0.519-2.229,1.088-3.4,1.784
			c-0.6,0.327-1.194,0.697-1.789,1.096c-0.601,0.39-1.223,0.778-1.808,1.237c-1.219,0.856-2.384,1.86-3.552,2.899
			c-0.553,0.554-1.11,1.11-1.669,1.67c-0.54,0.578-1.028,1.205-1.548,1.807c-0.541,0.588-0.948,1.274-1.412,1.916l-0.678,0.976
			c-0.209,0.333-0.387,0.685-0.582,1.025c-0.768,1.355-1.513,2.763-2.212,4.095c-0.72,1.332-1.347,2.652-2.136,3.815
			c-0.372,0.591-0.733,1.165-1.083,1.721c-0.176,0.277-0.348,0.55-0.517,0.817c-0.194,0.25-0.384,0.497-0.57,0.737
			c-0.756,0.955-1.381,1.881-2.124,2.547c-0.35,0.35-0.676,0.677-0.979,0.979c-0.345,0.254-0.663,0.486-0.949,0.696
			c-0.272,0.231-0.567,0.354-0.819,0.469c-0.252,0.111-0.455,0.234-0.649,0.252c-0.37,0.098-0.573,0.074-0.573,0.075
			c0-0.001,0.205,0.015,0.568-0.097c0.19-0.024,0.389-0.155,0.633-0.275c0.244-0.122,0.529-0.254,0.792-0.495
			c0.275-0.218,0.579-0.46,0.91-0.723c0.288-0.312,0.599-0.647,0.932-1.008c0.706-0.682,1.293-1.63,2.003-2.602
			c0.175-0.245,0.353-0.495,0.535-0.75c0.157-0.271,0.317-0.548,0.48-0.828c0.324-0.563,0.659-1.144,1.004-1.741
			c0.729-1.166,1.311-2.519,1.977-3.876c0.656-1.375,1.321-2.76,2.064-4.201c0.186-0.356,0.355-0.726,0.558-1.077l0.656-1.028
			c0.451-0.679,0.847-1.404,1.378-2.03c0.51-0.641,0.992-1.308,1.525-1.926c0.555-0.6,1.108-1.197,1.657-1.791
			c1.163-1.119,2.33-2.204,3.554-3.139c0.589-0.499,1.214-0.925,1.82-1.352c0.6-0.437,1.2-0.843,1.806-1.205
			c1.186-0.768,2.36-1.403,3.448-1.982c0.552-0.275,1.081-0.538,1.584-0.789c0.513-0.23,1-0.449,1.457-0.654
			c0.924-0.391,1.736-0.72,2.418-0.962c0.68-0.254,1.218-0.423,1.603-0.545c0.377-0.111,0.579-0.172,0.579-0.172L99.426,153.977z"/>
	</g>
	<g>
		<path d="M99.179,152.115c0,0,0.1,0.002,0.293,0.006c0.2,0.008,0.497,0.021,0.885,0.036c0.759,0.044,1.869,0.116,3.269,0.285
			c1.401,0.159,3.094,0.407,5.016,0.797c1.925,0.37,4.068,0.926,6.378,1.621c2.286,0.769,4.759,1.64,7.235,2.883
			c2.519,1.153,4.992,2.734,7.451,4.483c0.597,0.463,1.173,0.964,1.767,1.45c0.586,0.495,1.203,0.962,1.731,1.537
			c0.548,0.552,1.1,1.106,1.654,1.664l0.805,0.824l0.808,0.844c1.079,1.128,2.167,2.265,3.258,3.405
			c1.108,1.118,2.312,2.117,3.465,3.187c0.593,0.515,1.145,1.079,1.77,1.554l1.878,1.417l1.873,1.413
			c0.631,0.456,1.32,0.817,1.974,1.229c0.662,0.4,1.321,0.799,1.978,1.195c0.645,0.42,1.374,0.666,2.051,1.006
			c0.688,0.316,1.373,0.632,2.052,0.945c0.679,0.316,1.407,0.489,2.101,0.738c0.7,0.231,1.395,0.461,2.082,0.688
			c0.698,0.191,1.406,0.32,2.099,0.48c0.694,0.153,1.382,0.305,2.061,0.454c0.689,0.096,1.37,0.189,2.042,0.281
			c2.685,0.447,5.256,0.533,7.615,0.4c4.736-0.275,8.597-1.334,11.206-2.241c2.621-0.908,4.026-1.657,4.026-1.657
			s-1.39,0.776-3.997,1.738c-2.598,0.96-6.446,2.1-11.215,2.472c-2.382,0.182-4.991,0.145-7.695-0.252
			c-0.68-0.079-1.368-0.161-2.064-0.243c-0.689-0.138-1.388-0.276-2.093-0.417c-0.704-0.149-1.424-0.266-2.136-0.446
			c-0.703-0.217-1.412-0.436-2.128-0.656c-0.709-0.239-1.454-0.402-2.15-0.71c-0.697-0.305-1.4-0.611-2.107-0.92
			c-0.695-0.331-1.445-0.57-2.108-0.983c-0.676-0.39-1.354-0.782-2.036-1.176c-0.673-0.405-1.385-0.763-2.035-1.214
			c-0.641-0.464-1.284-0.93-1.929-1.396l-1.938-1.403c-0.645-0.472-1.219-1.033-1.832-1.546c-1.193-1.061-2.451-2.071-3.587-3.173
			c-1.114-1.119-2.224-2.234-3.325-3.34l-0.824-0.828l-0.424-0.427l-0.411-0.396c-0.547-0.528-1.091-1.055-1.632-1.577
			c-0.519-0.546-1.127-0.985-1.703-1.453c-0.584-0.458-1.148-0.932-1.733-1.367c-2.415-1.645-4.832-3.127-7.297-4.196
			c-2.42-1.157-4.839-1.954-7.07-2.657c-2.257-0.63-4.348-1.13-6.225-1.452c-1.873-0.341-3.521-0.55-4.879-0.676
			c-1.358-0.138-2.426-0.186-3.15-0.214c-0.355-0.008-0.628-0.014-0.812-0.018c-0.19,0-0.289,0-0.289,0L99.179,152.115z"/>
	</g>
	<g>
		<path d="M98.833,152.076c0,0,1.533-0.307,4.204-0.749c2.674-0.44,6.5-1.023,11.111-1.554c4.611-0.531,10.011-1.01,15.814-1.2
			c5.8-0.166,12.021-0.091,18.175,0.789c3.072,0.441,6.129,1.079,9.037,2.064c2.903,0.967,5.66,2.384,7.933,4.205
			c2.315,1.782,4.297,3.856,5.716,6.142c1.393,2.294,2.131,4.837,2.046,7.186c-0.055,2.349-0.763,4.429-1.641,6.093
			c-0.872,1.68-1.909,2.976-2.818,3.971c-0.924,0.988-1.742,1.671-2.327,2.097c-0.586,0.425-0.93,0.602-0.93,0.602
			s0.341-0.185,0.917-0.62c0.574-0.437,1.377-1.134,2.276-2.136c0.885-1.009,1.889-2.318,2.717-3.996
			c0.836-1.663,1.486-3.725,1.493-6.014c0.035-2.289-0.73-4.734-2.127-6.937c-1.424-2.191-3.403-4.186-5.7-5.879
			c-2.281-1.75-4.938-3.044-7.809-3.94c-2.861-0.905-5.879-1.473-8.914-1.846c-6.081-0.744-12.243-0.695-17.986-0.415
			c-5.748,0.306-11.097,0.889-15.662,1.51c-4.565,0.618-8.35,1.273-10.989,1.765c-2.644,0.493-4.128,0.822-4.129,0.822
			L98.833,152.076z"/>
	</g>
	<g>
		<path d="M98.644,153.928c0,0-0.392-0.185-1.078-0.508c-0.344-0.169-0.757-0.341-1.239-0.6c-0.479-0.25-1.02-0.531-1.609-0.839
			c-0.573-0.324-1.194-0.676-1.851-1.048c-0.658-0.366-1.321-0.808-2.022-1.234c-1.388-0.877-2.826-1.886-4.209-2.968
			c-0.665-0.585-1.37-1.104-1.966-1.756l-0.459-0.464c-0.081-0.086-0.14-0.135-0.239-0.249l-0.191-0.25
			c-0.254-0.332-0.505-0.66-0.752-0.982c-0.434-0.711-0.899-1.377-1.229-2.048c-0.363-0.657-0.681-1.289-0.949-1.884
			c-0.559-1.179-0.957-2.189-1.235-2.895c-0.263-0.712-0.413-1.118-0.413-1.118s0.179,0.395,0.492,1.084
			c0.328,0.683,0.797,1.659,1.435,2.786c0.308,0.569,0.667,1.171,1.07,1.79c0.376,0.643,0.861,1.232,1.316,1.879
			c0.269,0.304,0.543,0.613,0.82,0.926l0.209,0.235l0.215,0.189l0.468,0.408c0.598,0.57,1.332,1.032,2.005,1.546
			c1.419,0.952,2.889,1.833,4.305,2.591c0.716,0.367,1.39,0.75,2.058,1.061c0.664,0.315,1.292,0.612,1.871,0.888
			c0.583,0.252,1.116,0.483,1.589,0.688c0.464,0.21,0.914,0.361,1.262,0.502c0.708,0.272,1.112,0.429,1.112,0.429L98.644,153.928z"
			/>
	</g>
	<path d="M85.527,156.949c0,0-3.706-4.209-8.238-3.915c-4.533,0.292-5.265,3.436-6.435,5.19c-1.169,1.756-2.12,2.412-2.12,2.412
		s4.46,1.098,8.481,0.292c4.021-0.804,4.899-2.047,6.361-2.704c1.461-0.657,2.12-0.586,2.12-0.586s-1.389-1.461-5.411-1.461
		c-4.021,0-5.336,1.608-5.336,1.608s1.161-1.98,5.263-2.047C84.316,155.672,85.527,156.949,85.527,156.949z"/>
	<path d="M58.604,149.052c0,0-3.362-2.396-3.49-5.742c-0.128-3.343,2.121-4.115,3.318-5.105c1.197-0.99,1.607-1.737,1.607-1.737
		s1.141,3.187,0.855,6.195c-0.285,3.006-1.13,3.743-1.502,4.865c-0.373,1.121-0.269,1.598-0.269,1.598s-1.178-0.908-1.481-3.855
		c-0.304-2.946,0.776-4.032,0.776-4.032s-1.362,1.001-1.103,4.012C57.576,148.262,58.604,149.052,58.604,149.052z"/>
	<path d="M80.521,166.699c0,0-2.195,3.679-0.923,6.909c1.271,3.229,3.729,3.026,5.277,3.468c1.552,0.442,2.251,0.979,2.251,0.979
		s-0.244-3.5-1.767-6.238c-1.524-2.736-2.633-3.085-3.455-3.996c-0.818-0.908-0.919-1.403-0.919-1.403s-0.739,1.353,0.2,4.275
		c0.939,2.927,2.417,3.508,2.417,3.508s-1.711-0.382-2.719-3.352C79.875,167.879,80.521,166.699,80.521,166.699z"/>
	<path d="M72.111,179.949c0,0-1.932,2.059-1.567,4.317c0.365,2.26,1.976,2.473,2.911,2.975c0.937,0.503,1.312,0.947,1.312,0.947
		s0.335-2.288-0.261-4.265c-0.596-1.978-1.261-2.356-1.663-3.059c-0.4-0.702-0.394-1.035-0.394-1.035s-0.667,0.767-0.473,2.782
		c0.193,2.017,1.063,2.599,1.063,2.599s-1.047-0.486-1.28-2.54C71.528,180.615,72.111,179.949,72.111,179.949z"/>
	<path d="M114.385,157.218c0,0-5.217,0.052-7.766,3.423c-2.549,3.367-0.777,5.793-0.255,7.686c0.526,1.889,0.412,2.959,0.412,2.959
		s3.483-2.474,5.359-5.796c1.878-3.322,1.535-4.693,1.963-6.127c0.425-1.427,0.874-1.844,0.874-1.844s-1.873,0.086-4.318,2.921
		c-2.441,2.831-2.11,4.736-2.11,4.736s-0.689-2.022,1.758-4.952C112.748,157.293,114.385,157.218,114.385,157.218z"/>
	<path d="M149.04,150.751c0,0,3.105,0.675,4.21,3s-0.252,3.552-0.799,4.617c-0.545,1.062-0.61,1.712-0.61,1.712
		s-1.772-1.903-2.48-4.117c-0.711-2.214-0.336-2.988-0.415-3.896c-0.076-0.905-0.293-1.209-0.293-1.209s1.106,0.284,2.216,2.275
		c1.107,1.992,0.672,3.086,0.672,3.086s0.661-1.12-0.436-3.171C150.008,150.998,149.04,150.751,149.04,150.751z"/>
	<path d="M172.944,172.794c0,0,2.122-0.221,3.313,1.032c1.191,1.25,0.583,2.315,0.458,3.109c-0.126,0.79-0.032,1.22-0.032,1.22
		s-1.528-0.845-2.442-2.106c-0.916-1.262-0.841-1.835-1.08-2.396c-0.238-0.562-0.44-0.71-0.44-0.71s0.765-0.051,1.888,0.986
		c1.123,1.036,1.075,1.826,1.075,1.826s0.188-0.852-0.941-1.929C173.615,172.748,172.944,172.794,172.944,172.794z"/>
	<path d="M31.561,166.06c0,0-0.899-2.535-2.97-3.213c-2.069-0.677-2.953,0.593-3.788,1.165c-0.833,0.572-1.373,0.696-1.373,0.696
		s1.79,1.283,3.723,1.64c1.933,0.361,2.544-0.037,3.313-0.068c0.768-0.032,1.047,0.117,1.047,0.117s-0.357-0.897-2.147-1.616
		c-1.791-0.715-2.663-0.234-2.663-0.234s0.87-0.674,2.708,0.027S31.561,166.06,31.561,166.06z"/>
	<path d="M2.934,178.361c0,0-1.294,0.377-2.177-0.267c-0.883-0.642-0.625-1.374-0.637-1.882C0.108,175.706,0,175.449,0,175.449
		s1.047,0.354,1.76,1.034c0.712,0.681,0.73,1.046,0.944,1.368c0.211,0.32,0.354,0.392,0.354,0.392s-0.47,0.119-1.287-0.399
		c-0.816-0.518-0.875-1.014-0.875-1.014s-0.021,0.551,0.804,1.093C2.522,178.464,2.934,178.361,2.934,178.361z"/>
	<path d="M74.208,169.089c0,0-2.638-3.261-6.126-2.466c-3.489,0.795-4.491,3.666-5.676,5.287c-1.185,1.623-1.469,1.567-1.469,1.567
		s1.266,0.628,3.79,0.135c2.526-0.491,5.304-2.275,6.914-3.092c1.61-0.817,2.582-0.807,2.582-0.807s-1.496-1.126-4.274-0.783
		c-2.778,0.342-4.653,1.978-4.653,1.978s1.959-2.439,5.015-2.549C73.367,168.249,74.208,169.089,74.208,169.089z"/>
	<path d="M61.557,187.17c0,0-1.558-1.345-3.174-0.658c-1.617,0.688-1.851,2.163-2.282,3.049c-0.433,0.887-0.574,0.884-0.574,0.884
		s0.667,0.195,1.843-0.264c1.178-0.456,2.364-1.56,3.071-2.095c0.707-0.534,1.178-0.614,1.178-0.614s-0.822-0.413-2.133-0.006
		c-1.313,0.406-2.076,1.36-2.076,1.36s0.734-1.351,2.201-1.667C61.078,186.838,61.557,187.17,61.557,187.17z"/>
	<path d="M61.611,151.49c0,0-3.596-0.583-5.395,1.951c-1.799,2.534-0.787,4.973-0.615,6.71c0.172,1.736-0.044,1.863-0.044,1.863
		s1.184-0.325,2.535-2.104c1.35-1.783,2.115-4.546,2.684-6.004c0.571-1.463,1.206-2.02,1.206-2.02s-1.622,0.139-3.22,1.968
		c-1.602,1.829-1.868,3.975-1.868,3.975s-0.145-2.714,1.771-4.554C60.581,151.435,61.611,151.49,61.611,151.49z"/>
	<path d="M43.056,159.513c0,0-2.961,0.922-3.663,3.693c-0.705,2.771,0.757,4.372,1.368,5.723c0.611,1.354,0.479,1.543,0.479,1.543
		s0.832-0.727,1.393-2.71c0.563-1.979,0.398-4.536,0.44-5.952c0.042-1.415,0.382-2.119,0.382-2.119s-1.224,0.746-1.966,2.862
		c-0.744,2.121-0.361,3.977-0.361,3.977s-0.859-2.162,0.125-4.409C42.239,159.867,43.056,159.513,43.056,159.513z"/>
	<path d="M91.562,159.107c0,0,9.182,1.017,11.499,5.539c2.321,4.522-0.626,5.79-1.597,7.434c-0.976,1.644-0.637,2.914-0.637,2.914
		s-2.569-2.648-4.968-5.834c-2.397-3.188-2.617-5.827-3.667-7.741c-1.05-1.913-1.802-2.185-1.802-2.185s4.485,1.262,6.925,4.079
		c2.438,2.821,2.281,5.154,2.281,5.154s0.787-2.58-1.854-5.628C95.101,159.797,91.562,159.107,91.562,159.107z"/>
	<path d="M68.192,179.965c0,0-2.845-2.427-4.821-1.856c-1.977,0.568-1.534,1.79-1.75,2.531c-0.214,0.744-0.684,0.996-0.684,0.996
		s1.495,0.024,3.099-0.151c1.604-0.177,2.444-0.845,3.299-1.064c0.856-0.222,1.144-0.075,1.144-0.075s-1.615-0.973-3.123-0.911
		c-1.509,0.063-2.153,0.756-2.153,0.756s0.543-0.947,2.174-1.014C67.008,179.111,68.192,179.965,68.192,179.965z"/>
	<path d="M48.643,152.622c0,0-3.236-4.27-6.175-4.078c-2.939,0.189-2.695,2.035-3.225,3.003c-0.527,0.978-1.262,1.185-1.262,1.185
		s2.083,0.492,4.381,0.738c2.298,0.245,3.678-0.432,4.941-0.477c1.264-0.047,1.622,0.248,1.622,0.248s-1.96-1.858-4.088-2.233
		c-2.128-0.377-3.242,0.396-3.242,0.396s1.049-1.158,3.35-0.75C47.247,151.064,48.643,152.622,48.643,152.622z"/>
	<path d="M25.529,172.158c0,0-1.595-1.811-3.543-1.681c-1.949,0.127-2.26,1.479-2.763,2.236c-0.501,0.754-0.91,1.037-0.91,1.037
		s1.918,0.469,3.646,0.12c1.729-0.348,2.104-0.882,2.734-1.167c0.628-0.281,0.911-0.251,0.911-0.251s-0.596-0.627-2.328-0.626
		c-1.728,0.003-2.293,0.693-2.293,0.693s0.498-0.85,2.262-0.884C25.009,171.608,25.529,172.158,25.529,172.158z"/>
	<path d="M21.359,177.609c0,0-2.261,0.617-2.863,2.692c-0.604,2.073,0.456,3.318,0.881,4.357c0.426,1.038,0.321,1.175,0.321,1.175
		s0.647-0.526,1.124-2.009c0.475-1.479,0.419-3.415,0.488-4.482c0.068-1.067,0.345-1.589,0.345-1.589s-0.945,0.53-1.561,2.109
		c-0.617,1.579-0.377,2.991-0.377,2.991s-0.592-1.654,0.21-3.327C20.732,177.855,21.359,177.609,21.359,177.609z"/>
	<path d="M9.157,180.585c0,0-3.063,1.063-3.503,2.791c-0.441,1.728,0.667,1.932,1.126,2.419c0.461,0.486,0.445,0.946,0.445,0.946
		s0.673-1.105,1.245-2.383c0.571-1.277,0.441-2.197,0.651-2.935c0.21-0.736,0.446-0.888,0.446-0.888s-1.437,0.781-2.051,1.936
		c-0.615,1.156-0.379,1.941-0.379,1.941s-0.47-0.821,0.197-2.069C7.999,181.096,9.157,180.585,9.157,180.585z"/>
	<path d="M11.385,179.023c0,0-0.113-1.927-1.406-2.808c-1.292-0.881-2.155-0.185-2.845,0.045c-0.688,0.229-1.086,0.205-1.086,0.205
		s0.978,1.243,2.239,1.876c1.262,0.635,1.763,0.482,2.299,0.615c0.536,0.131,0.699,0.291,0.699,0.291s-0.067-0.691-1.158-1.545
		c-1.091-0.852-1.789-0.694-1.789-0.694s0.734-0.291,1.862,0.561C11.328,178.42,11.385,179.023,11.385,179.023z"/>
	<path d="M79.124,134.591c0,0,0.25-1.571-0.635-2.511c-0.884-0.94-1.706-0.53-2.302-0.469c-0.596,0.063-0.912-0.027-0.912-0.027
		s0.567,1.176,1.473,1.911c0.904,0.733,1.335,0.699,1.743,0.901c0.41,0.201,0.513,0.358,0.513,0.358s0.067-0.569-0.66-1.45
		c-0.728-0.879-1.318-0.876-1.318-0.876s0.643-0.104,1.4,0.78C79.184,134.098,79.124,134.591,79.124,134.591z"/>
	<path d="M84.904,143.203c0,0-1.392-2.853,0.269-4.991c1.662-2.138,3.952-1.907,5.444-2.201s1.543-0.507,1.543-0.507
		s0.027,1.07-1.119,2.644c-1.146,1.576-3.258,2.909-4.332,3.752c-1.076,0.846-1.381,1.514-1.381,1.514s-0.292-1.387,0.832-3.182
		c1.124-1.798,2.845-2.559,2.845-2.559s-2.299,0.563-3.352,2.623C84.597,142.358,84.904,143.203,84.904,143.203z"/>
	<path d="M80.91,140.416c0,0-1.527-1.928-3.521-1.903c-1.994,0.022-2.387,1.386-2.939,2.127c-0.554,0.742-0.985,1.009-0.985,1.009
		s1.93,0.584,3.712,0.323c1.781-0.26,2.194-0.785,2.851-1.04c0.656-0.255,0.942-0.207,0.942-0.207s-0.576-0.674-2.338-0.766
		c-1.763-0.093-2.377,0.581-2.377,0.581s0.555-0.84,2.354-0.775C80.408,139.828,80.91,140.416,80.91,140.416z"/>
	<path d="M124.82,161.225c0,0-4.138,0.686-5.168,4.111c-1.031,3.426,0.971,5.715,1.794,7.546c0.826,1.832,0.64,2.051,0.64,2.051
		s1.169-0.79,1.988-3.229c0.818-2.438,0.639-5.735,0.725-7.539c0.086-1.805,0.572-2.643,0.572-2.643s-1.717,0.744-2.79,3.33
		c-1.075,2.584-0.577,5.021-0.577,5.021s-1.154-2.908,0.26-5.62C123.677,161.542,124.82,161.225,124.82,161.225z"/>
	<path d="M132.842,167.984c0,0,2.998,4.441,1.87,7.159c-1.127,2.722-2.796,1.896-3.885,2.085c-1.094,0.185-1.526,0.813-1.526,0.813
		s0.205-2.13,0.713-4.386c0.509-2.254,1.595-3.341,2.045-4.522c0.452-1.183,0.288-1.616,0.288-1.616s1.128,2.456,0.796,4.589
		c-0.33,2.137-1.42,2.941-1.42,2.941s1.436-0.62,1.79-2.93C133.868,169.808,132.842,167.984,132.842,167.984z"/>
	<path d="M148.369,181.002c0,0,2.775,1.495,3.194,4.016c0.416,2.52-1.213,3.322-2.025,4.185c-0.812,0.866-1.051,1.469-1.051,1.469
		s-1.169-2.303-1.239-4.609c-0.073-2.303,0.496-2.942,0.67-3.83c0.175-0.884,0.052-1.234,0.052-1.234s0.977,0.576,1.489,2.779
		c0.512,2.204-0.201,3.128-0.201,3.128s0.937-0.889,0.449-3.144C149.223,181.503,148.369,181.002,148.369,181.002z"/>
	<path d="M162.016,186.832c0,0,3.14-0.525,4.723,1.681c1.585,2.204,0.711,4.341,0.569,5.859c-0.144,1.517,0.047,1.628,0.047,1.628
		s-1.034-0.279-2.224-1.828c-1.188-1.552-1.869-3.96-2.374-5.235c-0.507-1.273-1.063-1.755-1.063-1.755s1.416,0.111,2.821,1.704
		c1.41,1.589,1.651,3.463,1.651,3.463s0.113-2.373-1.569-3.972C162.916,186.779,162.016,186.832,162.016,186.832z"/>
	<path d="M180.59,187.372c0,0,2.36-1.661,4.348-0.817c1.99,0.842,1.797,2.613,2.035,3.72c0.232,1.103,0.551,1.597,0.551,1.597
		s-2.186-0.1-3.857-1.136c-1.674-1.034-1.862-1.825-2.413-2.394c-0.546-0.57-0.854-0.631-0.854-0.631s0.865-0.563,2.672,0.048
		c1.806,0.611,2.131,1.662,2.131,1.662s-0.193-1.223-2.026-1.88C181.346,186.879,180.59,187.372,180.59,187.372z"/>
	<path d="M191.074,182.636c0,0,0.505-1.51,1.725-1.932c1.219-0.425,1.758,0.317,2.257,0.648c0.5,0.331,0.821,0.398,0.821,0.398
		s-1.047,0.778-2.189,1.012c-1.141,0.231-1.507,0.002-1.964-0.008c-0.455-0.011-0.618,0.081-0.618,0.081s0.204-0.536,1.254-0.98
		c1.054-0.442,1.574-0.166,1.574-0.166s-0.521-0.391-1.602,0.044C191.249,182.169,191.074,182.636,191.074,182.636z"/>
	<path d="M172.797,186.668c0,0-0.052-2.688,1.646-4.055c1.696-1.365,2.976-0.49,3.957-0.247c0.983,0.24,1.532,0.164,1.532,0.164
		s-1.224,1.834-2.905,2.853c-1.683,1.02-2.396,0.864-3.126,1.104c-0.73,0.242-0.939,0.479-0.939,0.479s0.019-0.967,1.439-2.27
		c1.424-1.303,2.41-1.162,2.41-1.162s-1.054-0.323-2.526,0.983C172.811,185.825,172.797,186.668,172.797,186.668z"/>
	<path d="M164.658,182.191c0,0-0.801,1.085-1.893,1.107c-1.092,0.025-1.329-0.715-1.648-1.11c-0.314-0.396-0.558-0.534-0.558-0.534
		s1.047-0.355,2.026-0.244c0.979,0.108,1.215,0.388,1.579,0.516c0.365,0.126,0.521,0.097,0.521,0.097s-0.303,0.38-1.267,0.464
		c-0.964,0.083-1.313-0.278-1.313-0.278s0.318,0.452,1.305,0.383C164.393,182.523,164.658,182.191,164.658,182.191z"/>
	<path d="M149.437,178.978c0,0,1.142-3.388,4.163-3.786c3.025-0.4,4.675,1.597,6.104,2.54c1.428,0.944,1.637,0.815,1.637,0.815
		s-0.824,0.879-2.987,1.233c-2.164,0.355-4.911-0.244-6.44-0.42c-1.529-0.175-2.302,0.121-2.302,0.121s0.862-1.343,3.183-1.894
		c2.32-0.55,4.304,0.2,4.304,0.2s-2.289-1.366-4.765-0.55C149.859,178.058,149.437,178.978,149.437,178.978z"/>
	<path d="M137.054,167.697c0,0,2.296-4.784,6.501-5.68c4.203-0.898,5.678,1.779,7.194,3.078c1.515,1.299,2.548,1.653,2.548,1.653
		s-3.78,2.144-7.65,2.442c-3.869,0.299-4.987-0.61-6.489-0.832c-1.5-0.226-2.081,0.01-2.081,0.01s0.892-1.689,4.553-2.72
		c3.664-1.031,5.277,0.097,5.277,0.097s-1.567-1.507-5.322-0.515C137.83,166.221,137.054,167.697,137.054,167.697z"/>
	<path d="M123.973,156.865c0,0,2.105-4.439,6.299-4.495c4.193-0.054,6.123,2.938,7.92,4.459c1.797,1.522,2.103,1.38,2.103,1.38
		s-1.268,1.063-4.278,1.199c-3.014,0.133-6.667-1.132-8.726-1.618c-2.059-0.487-3.162-0.208-3.162-0.208s1.393-1.695,4.652-2.069
		c3.258-0.377,5.844,0.971,5.844,0.971s-2.903-2.238-6.414-1.522C124.698,155.679,123.973,156.865,123.973,156.865z"/>
	<path d="M171.608,166.369c0,0-2.535-1.599-4.816-0.766c-2.281,0.834-2.183,2.556-2.519,3.633c-0.337,1.078-0.723,1.559-0.723,1.559
		s2.452-0.11,4.394-1.129c1.942-1.019,2.206-1.788,2.857-2.348c0.648-0.559,0.998-0.62,0.998-0.62s-0.933-0.54-2.996,0.067
		c-2.064,0.605-2.497,1.629-2.497,1.629s0.299-1.191,2.393-1.844C170.795,165.896,171.608,166.369,171.608,166.369z"/>
	<path d="M173.067,163.171c0,0,2.062-2.774,4.862-2.827c2.802-0.052,3.412,1.843,4.222,2.861s1.428,1.374,1.428,1.374
		s-2.686,0.903-5.2,0.615c-2.511-0.288-3.114-1.008-4.048-1.337c-0.933-0.329-1.332-0.25-1.332-0.25s0.778-0.973,3.249-1.178
		c2.473-0.207,3.364,0.715,3.364,0.715s-0.815-1.156-3.341-0.987C173.745,162.325,173.067,163.171,173.067,163.171z"/>
	<path d="M161.662,151.482c0,0,3.188-5.311,6.593-5.457c3.406-0.149,3.354,2.001,4.084,3.052c0.729,1.056,1.601,1.204,1.601,1.204
		s-2.335,0.826-4.948,1.395c-2.613,0.569-4.283-0.033-5.744,0.07c-1.459,0.104-1.836,0.486-1.836,0.486s2.024-2.381,4.424-3.08
		c2.401-0.697,3.781,0.052,3.781,0.052s-1.353-1.2-3.95-0.444C163.072,149.519,161.662,151.482,161.662,151.482z"/>
	<path d="M115.854,148.347c0,0-1.476-4.846,1.682-7.798c3.157-2.949,6.706-2.01,9.131-2.099c2.425-0.085,2.561-0.407,2.561-0.407
		s-0.229,1.691-2.429,3.884c-2.204,2.193-5.867,3.763-7.774,4.82c-1.906,1.06-2.553,2.038-2.553,2.038s-0.114-2.259,2.109-4.806
		c2.223-2.547,5.129-3.315,5.129-3.315s-3.768,0.309-5.946,3.291C115.584,146.937,115.854,148.347,115.854,148.347z"/>
	<path d="M146.728,148.384c0,0,1.494-3.803,4.671-4.729c3.18-0.927,4.458,1.044,5.697,1.955c1.24,0.912,2.053,1.126,2.053,1.126
		s-2.783,1.86-5.736,2.309c-2.954,0.449-3.864-0.184-5.03-0.272c-1.162-0.088-1.596,0.125-1.596,0.125s0.587-1.347,3.339-2.344
		c2.758-1.001,4.058-0.226,4.058-0.226s-1.287-1.066-4.112-0.093C147.241,147.207,146.728,148.384,146.728,148.384z"/>
</g>
</svg>
