<?xml version="1.0" encoding="utf-8"?>
<!-- Generator: Adobe Illustrator 16.0.0, SVG Export Plug-In . SVG Version: 6.00 Build 0)  -->
<!DOCTYPE svg PUBLIC "-//W3C//DTD SVG 1.1//EN" "http://www.w3.org/Graphics/SVG/1.1/DTD/svg11.dtd">
<svg version="1.1" id="Layer_1" xmlns="http://www.w3.org/2000/svg" xmlns:xlink="http://www.w3.org/1999/xlink" x="0px" y="0px"
	 width="800px" height="800px" viewBox="0 0 800 800" enable-background="new 0 0 800 800" xml:space="preserve">
<g>
	<polygon fill="none" stroke="#000000" stroke-miterlimit="10" points="399.596,235.448 357.432,276.432 320.604,235.448 	"/>
	<polygon fill="none" stroke="#000000" stroke-miterlimit="10" points="320.604,235.448 277.242,187.336 266.552,225.355 
		297.435,272.274 	"/>
	<polyline fill="none" stroke="#000000" stroke-miterlimit="10" points="339.614,302.568 333.071,336.423 303.975,302.568 	"/>
	<polyline fill="none" stroke="#000000" stroke-miterlimit="10" points="320.604,235.448 312.282,194.467 334.864,153.485 
		383.556,176.056 399.596,235.448 416.882,260.988 416.882,171.899 	"/>
	<polyline fill="none" stroke="#000000" stroke-miterlimit="10" points="383.556,176.056 399.596,149.921 396.031,128.533 
		349.706,117.845 334.864,153.485 277.242,153.485 277.242,187.336 312.282,194.467 	"/>
	<polyline fill="none" stroke="#000000" stroke-miterlimit="10" points="349.706,117.845 293.581,127.35 277.242,153.485 
		251.704,164.769 	"/>
	<polygon fill="none" stroke="#000000" stroke-miterlimit="10" points="343.172,276.432 320.604,260.988 312.282,268.709 
		321.787,276.432 	"/>
	<polyline fill="none" stroke="#000000" stroke-miterlimit="10" points="396.031,128.533 416.882,107.745 349.706,95.274 
		297.435,109.528 293.581,127.35 	"/>
	<polyline fill="none" stroke="#000000" stroke-miterlimit="10" points="297.435,109.528 241.607,54.293 181.026,39.444 
		266.552,128.533 297.435,109.528 	"/>
	<polyline fill="none" stroke="#000000" stroke-miterlimit="10" points="266.552,128.533 251.704,164.769 213.097,174.862 
		162.016,95.274 181.026,39.444 	"/>
	<polygon fill="none" stroke="#000000" stroke-miterlimit="10" points="213.097,174.862 213.097,198.624 190.526,211.099 
		169.142,174.862 	"/>
	<polyline fill="none" stroke="#000000" stroke-miterlimit="10" points="178.641,174.862 162.016,128.533 162.016,95.274 	"/>
	<polyline fill="none" stroke="#000000" stroke-miterlimit="10" points="399.596,149.921 416.882,171.899 416.882,107.745 	"/>
	<polyline fill="none" stroke="#000000" stroke-miterlimit="10" points="416.882,260.988 416.882,280.587 387.717,280.587 
		371.593,262.666 	"/>
	<polyline fill="none" stroke="#000000" stroke-miterlimit="10" points="416.882,280.587 416.882,356.02 402.566,356.02 
		387.717,280.587 371.593,297.219 357.432,276.432 339.614,302.568 303.975,302.568 297.435,272.274 254.078,255.942 
		219.032,302.568 224.973,344.281 	"/>
	<polyline fill="none" stroke="#000000" stroke-miterlimit="10" points="371.593,299.595 375.249,342.357 402.566,356.02 
		387.081,358.994 367.573,379.584 	"/>
	<polyline fill="none" stroke="#000000" stroke-miterlimit="10" points="375.249,342.357 333.071,389.881 333.071,336.423 
		286.151,369.092 303.975,395.219 333.071,389.881 	"/>
	<polyline fill="none" stroke="#000000" stroke-miterlimit="10" points="303.975,302.568 264.178,302.568 224.973,344.281 
		286.151,369.092 264.178,302.568 254.078,255.942 266.552,225.355 224.973,255.942 224.973,205.751 251.704,164.769 	"/>
	<polyline fill="none" stroke="#000000" stroke-miterlimit="10" points="224.973,255.942 219.032,302.568 171.518,344.281 
		179.835,255.942 213.097,198.624 224.973,205.751 	"/>
	<polygon fill="none" stroke="#000000" stroke-miterlimit="10" points="402.566,402.952 394.246,387.5 375.249,417.802 
		394.246,414.83 	"/>
	<polyline fill="none" stroke="#000000" stroke-miterlimit="10" points="367.573,416.021 375.249,417.802 402.566,427.886 
		381.778,467.684 416.882,471.256 416.882,436.81 	"/>
	<polyline fill="none" stroke="#000000" stroke-miterlimit="10" points="394.246,387.5 385.071,373.839 367.573,416.021 
		360.101,423.739 381.778,467.684 364.583,475.402 343.172,456.407 333.071,389.881 360.101,423.739 373.541,344.281 	"/>
	<polyline fill="none" stroke="#000000" stroke-miterlimit="10" points="402.566,402.952 402.566,427.886 416.882,436.81 
		416.882,373.839 385.071,373.839 387.081,358.994 	"/>
	<line fill="none" stroke="#000000" stroke-miterlimit="10" x1="416.882" y1="373.839" x2="416.882" y2="356.02"/>
	<polyline fill="none" stroke="#000000" stroke-miterlimit="10" points="343.172,456.407 333.071,467.094 298.625,413.037 
		303.975,395.219 	"/>
	<polyline fill="none" stroke="#000000" stroke-miterlimit="10" points="298.625,413.037 233.886,417.802 224.973,344.281 	"/>
	<polyline fill="none" stroke="#000000" stroke-miterlimit="10" points="364.583,475.402 416.882,493.22 416.882,500.952 
		371.412,495.015 333.071,467.094 	"/>
	<polyline fill="none" stroke="#000000" stroke-miterlimit="10" points="416.882,493.22 416.882,471.256 394.246,475.402 
		367.573,476.425 	"/>
	<polyline fill="none" stroke="#000000" stroke-miterlimit="10" points="233.886,417.802 276.645,478.974 371.412,495.015 
		353.272,529.459 	"/>
	<polyline fill="none" stroke="#000000" stroke-miterlimit="10" points="416.882,500.952 416.882,540.148 353.272,529.459 
		276.645,478.974 	"/>
	<polyline fill="none" stroke="#000000" stroke-miterlimit="10" points="190.526,211.099 107.961,314.87 65.751,521.937 
		171.518,344.281 	"/>
	<polyline fill="none" stroke="#000000" stroke-miterlimit="10" points="65.751,525.494 148.354,594.19 117.471,434.385 	"/>
	<polyline fill="none" stroke="#000000" stroke-miterlimit="10" points="148.354,594.19 171.518,446.307 150.341,379.584 	"/>
	<line fill="none" stroke="#000000" stroke-miterlimit="10" x1="171.518" y1="443.631" x2="227.11" y2="361.917"/>
	<polyline fill="none" stroke="#000000" stroke-miterlimit="10" points="416.882,703.483 416.882,597.765 176.269,672.009 
		416.882,703.483 264.474,745.062 176.269,672.009 148.354,594.19 	"/>
	<polyline fill="none" stroke="#000000" stroke-miterlimit="10" points="353.272,529.459 252.3,581.725 176.269,672.009 	"/>
	<polyline fill="none" stroke="#000000" stroke-miterlimit="10" points="416.882,540.148 416.882,597.765 252.3,581.725 
		162.962,500.952 	"/>
	<polyline fill="none" stroke="#000000" stroke-miterlimit="10" points="211.458,544.798 177.717,514.29 246.356,525.3 
		312.55,502.62 	"/>
	<line fill="none" stroke="#000000" stroke-miterlimit="10" x1="246.356" y1="525.3" x2="286.151" y2="564.201"/>
</g>
</svg>
