<svg id="svg2" xmlns:rdf="http://www.w3.org/1999/02/22-rdf-syntax-ns#" xmlns="http://www.w3.org/2000/svg" height="3e2mm" width="2.1e2mm" version="1.1" xmlns:cc="http://creativecommons.org/ns#" xmlns:dc="http://purl.org/dc/elements/1.1/" viewBox="0 0 744.09448819 1052.3622047">
  <g id="layer1" opacity=".5" display="none">
    <rect id="rect4138" height="1.5e2" width="1.5e2" stroke="#00007a" stroke-linecap="round" y="42" x="50" fill="none"/>
  </g>
  <g id="layer2" opacity=".5" display="none" stroke="#000" stroke-width="1px" fill="none">
    <path id="path4143" d="m50 1.9e2 1.5e2 -1.5e2"/>
    <path id="path4145" d="m50 42 1.5e2 1.5e2"/>
    <path id="path4147" d="m2e2 1.2e2 -75 75-75-75 75-75z"/>
    <path id="path4149" d="m1.7e2 42-1.2e2 1.2e2v-5l1.2e2 -1.1e2z"/>
    <path id="path4151" d="m50 47 1.4e2 1.4e2h5l-1.5e2 -1.5e2z"/>
    <path id="path4153" d="m1.7e2 1.9e2 -1.2e2 -1.2e2v5l1.2e2 1.1e2z"/>
    <path id="path4155" d="m2e2 42-1.5e2 1.5e2v5l1.5e2 -1.5e2z"/>
  </g>
  <g id="layer3" stroke="#000" stroke-width="1px" fill="none">
    <path id="path4165" d="m1.6e2 80 38 37-38 38-38-38z"/>
    <path id="path4169" d="m1.6e2 77-10-12-40 35l12 12z"/>
    <path id="path4171" d="m1.1e2 1e2 30-38-10-20-43 38z"/>
    <path id="path4173" d="m1.1e2 1.3e2 38 38 12-12-38-38z"/>
    <path id="path4175" d="m1.2e2 1.9e2 20-20l-38-38-20 20z"/>
    <path id="path4177" d="m70 1.4e2 20-20-20-20-20 20z"/>
  </g>
</svg>
